<?xml version="1.0" encoding="UTF-8"?>
<svg xmlns="http://www.w3.org/2000/svg" viewBox="0 0 100 100"><rect x="0" y="0" width="100" height="100" rx="0" fill="#15181d"/><rect x="0" y="0" width="100" height="100" fill="#15181d"/><rect x="62" y="0" width="38" height="100" fill="#c6f231"/><rect x="58" y="0" width="4" height="100" fill="#fff" opacity=".85"/><g fill="#fff"><path transform="translate(8.8,63.2)" d="M16.2 -10.2H8.4V0H1.4V-26.4H8.4V-16.3H16.2V-26.4H23.1V0H16.2Z M42 -10.2H34.2V0H27.3V-26.4H34.2V-16.3H42V-26.4H48.9V0H42Z"/></g><defs><clipPath id="vb5"><circle cx="81" cy="50" r="12"/></clipPath></defs><circle cx="81" cy="50" r="12" fill="#fff"/><g clip-path="url(#vb5)"><path d="M81.0,50.0 L81.2,49.7 L81.4,49.4 L81.5,49.1 L81.7,48.8 L81.9,48.6 L82.0,48.3 L82.1,48.0 L82.2,47.7 L82.4,47.4 L82.5,47.1 L82.6,46.8 L82.6,46.5 L82.7,46.2 L82.8,45.9 L82.8,45.6 L82.9,45.3 L82.9,45.0 L82.9,44.7 L82.9,44.4 L82.9,44.1 L82.9,43.8 L82.9,43.5 L82.9,43.2 L82.9,42.9 L82.8,42.6 L82.8,42.3 L82.7,42.0 L82.6,41.7 L82.6,41.4 L82.5,41.1 L82.4,40.8 L82.2,40.5 L82.1,40.2 L82.0,39.9 L81.9,39.6 L81.7,39.2 L81.5,38.9 L81.4,38.6 L81.2,38.3 L81.0,38.0 M83.7,53.6 L83.9,53.3 L84.2,53.0 L84.4,52.7 L84.6,52.4 L84.8,52.1 L85.0,51.8 L85.2,51.5 L85.3,51.2 L85.5,50.9 L85.7,50.6 L85.8,50.2 L86.0,49.9 L86.1,49.6 L86.3,49.3 L86.4,48.9 L86.5,48.6 L86.6,48.3 L86.7,47.9 L86.8,47.6 L86.9,47.3 L87.0,46.9 L87.0,46.6 L87.1,46.2 L87.2,45.9 L87.2,45.5 L87.2,45.2 L87.2,44.8 L87.3,44.5 L87.3,44.1 L87.3,43.8 L87.2,43.4 L87.2,43.1 L87.2,42.7 L87.2,42.4 L87.1,42.0 L87.0,41.7 L87.0,41.3 L86.9,41.0 L86.8,40.6 L86.7,40.3 L86.6,39.9 L86.5,39.6 L86.4,39.3 L86.3,38.9 L86.2,38.6 L86.0,38.3 M87.5,55.4 L87.7,55.1 L88.0,54.7 L88.2,54.3 L88.4,54.0 L88.7,53.6 L88.9,53.2 L89.1,52.8 L89.3,52.4 L89.5,52.0 L89.7,51.6 L89.9,51.2 L90.0,50.8 L90.2,50.4 L90.4,49.9 L90.5,49.5 L90.6,49.1 L90.8,48.6 L90.9,48.2 L91.0,47.8 L91.1,47.3 L91.1,46.9 L91.2,46.4 L91.3,45.9 L91.3,45.5 L91.3,45.0 L91.3,44.6 L91.3,44.1 L91.3,43.7 L91.3,43.2 L91.3,42.7 L91.3,42.3 M81.0,50.0 L80.7,50.0 L80.3,50.0 L80.0,50.0 L79.6,50.0 L79.3,50.0 L79.0,50.0 L78.7,50.0 L78.4,50.1 L78.1,50.1 L77.7,50.2 L77.4,50.3 L77.1,50.3 L76.9,50.4 L76.6,50.5 L76.3,50.6 L76.0,50.7 L75.7,50.8 L75.5,51.0 L75.2,51.1 L74.9,51.3 L74.7,51.4 L74.4,51.6 L74.2,51.7 L73.9,51.9 L73.7,52.1 L73.5,52.3 L73.2,52.5 L73.0,52.7 L72.8,53.0 L72.6,53.2 L72.3,53.4 L72.1,53.7 L71.9,53.9 L71.7,54.2 L71.5,54.5 L71.3,54.8 L71.1,55.1 L71.0,55.4 L70.8,55.7 L70.6,56.0 M82.8,45.8 L82.4,45.8 L82.0,45.8 L81.7,45.7 L81.3,45.7 L80.9,45.7 L80.6,45.7 L80.2,45.6 L79.9,45.6 L79.5,45.7 L79.2,45.7 L78.8,45.7 L78.4,45.7 L78.1,45.8 L77.7,45.8 L77.4,45.9 L77.0,45.9 L76.7,46.0 L76.4,46.1 L76.0,46.2 L75.7,46.3 L75.3,46.4 L75.0,46.5 L74.7,46.6 L74.3,46.7 L74.0,46.9 L73.7,47.0 L73.4,47.2 L73.1,47.3 L72.8,47.5 L72.5,47.7 L72.2,47.9 L71.9,48.1 L71.6,48.3 L71.3,48.5 L71.0,48.7 L70.8,48.9 L70.5,49.2 L70.2,49.4 L70.0,49.6 L69.7,49.9 L69.5,50.2 L69.2,50.4 L69.0,50.7 L68.8,51.0 L68.6,51.2 L68.3,51.5 M82.5,41.7 L82.0,41.7 L81.6,41.6 L81.1,41.6 L80.7,41.6 L80.3,41.6 L79.8,41.6 L79.4,41.6 L78.9,41.6 L78.5,41.6 L78.0,41.7 L77.6,41.7 L77.2,41.8 L76.7,41.8 L76.3,41.9 L75.8,42.0 L75.4,42.1 L74.9,42.2 L74.5,42.4 L74.1,42.5 L73.6,42.6 L73.2,42.8 L72.8,43.0 L72.4,43.2 L71.9,43.3 L71.5,43.5 L71.1,43.8 L70.7,44.0 L70.3,44.2 L70.0,44.5 L69.6,44.7 L69.2,45.0 M81.0,50.0 L81.2,50.3 L81.3,50.6 L81.5,50.9 L81.7,51.2 L81.8,51.5 L82.0,51.7 L82.2,52.0 L82.4,52.2 L82.6,52.5 L82.8,52.7 L83.0,52.9 L83.2,53.2 L83.4,53.4 L83.7,53.6 L83.9,53.8 L84.1,54.0 L84.4,54.1 L84.6,54.3 L84.9,54.5 L85.1,54.6 L85.4,54.8 L85.7,54.9 L85.9,55.0 L86.2,55.2 L86.5,55.3 L86.8,55.4 L87.1,55.5 L87.4,55.6 L87.7,55.6 L88.0,55.7 L88.3,55.8 L88.6,55.8 L89.0,55.9 L89.3,55.9 L89.6,56.0 L90.0,56.0 L90.3,56.0 L90.7,56.0 L91.0,56.0 L91.4,56.0 M76.5,50.6 L76.7,50.9 L76.8,51.2 L77.0,51.6 L77.1,51.9 L77.3,52.2 L77.4,52.5 L77.6,52.8 L77.8,53.2 L78.0,53.5 L78.2,53.8 L78.4,54.1 L78.6,54.4 L78.8,54.6 L79.0,54.9 L79.2,55.2 L79.5,55.5 L79.7,55.7 L79.9,56.0 L80.2,56.2 L80.4,56.5 L80.7,56.7 L81.0,56.9 L81.2,57.2 L81.5,57.4 L81.8,57.6 L82.1,57.8 L82.4,58.0 L82.7,58.2 L83.0,58.4 L83.3,58.5 L83.6,58.7 L83.9,58.9 L84.2,59.0 L84.5,59.1 L84.9,59.3 L85.2,59.4 L85.5,59.5 L85.9,59.6 L86.2,59.7 L86.5,59.8 L86.9,59.9 L87.2,60.0 L87.6,60.0 L87.9,60.1 L88.3,60.2 L88.6,60.2 M73.1,52.9 L73.3,53.3 L73.5,53.7 L73.6,54.1 L73.9,54.5 L74.1,54.9 L74.3,55.2 L74.5,55.6 L74.8,56.0 L75.0,56.4 L75.3,56.7 L75.5,57.1 L75.8,57.4 L76.1,57.8 L76.4,58.1 L76.7,58.5 L77.0,58.8 L77.3,59.1 L77.6,59.4 L78.0,59.8 L78.3,60.1 L78.7,60.3 L79.0,60.6 L79.4,60.9 L79.8,61.2 L80.1,61.4 L80.5,61.7 L80.9,61.9 L81.3,62.1 L81.7,62.3 L82.1,62.5 L82.6,62.7" fill="none" stroke="#c6f231" stroke-width="1.92" stroke-linecap="round" stroke-linejoin="round"/></g><circle cx="81" cy="50" r="11.04" fill="none" stroke="#c6f231" stroke-width="1.92"/><defs><linearGradient id="sh" x1="0" y1="0" x2="1" y2="1"><stop offset="0" stop-color="#fff" stop-opacity=".16"/><stop offset=".5" stop-color="#fff" stop-opacity="0"/><stop offset="1" stop-color="#000" stop-opacity=".22"/></linearGradient></defs><rect width="100" height="100" fill="url(#sh)"/></svg>
